<?xml version="1.0" encoding="iso-8859-1"?>
<!-- Generator: Adobe Illustrator 19.0.0, SVG Export Plug-In . SVG Version: 6.00 Build 0)  -->
<svg version="1.1" id="Capa_1" xmlns="http://www.w3.org/2000/svg" xmlns:xlink="http://www.w3.org/1999/xlink" x="0px" y="0px"
	 viewBox="0 0 512.001 512.001" style="enable-background:new 0 0 512.001 512.001;" xml:space="preserve">
<g>
	<path style="fill:#FDBA6D;" d="M459.113,504.501H52.89c-21.947,0-39.739-17.792-39.739-39.739V204.599h485.701v260.162
		C498.852,486.709,481.06,504.501,459.113,504.501z"/>
	<path style="fill:#FDBA6D;" d="M233.849,15.749L13.151,204.599h485.701L278.154,15.749C265.401,4.836,246.602,4.836,233.849,15.749
		z"/>
</g>
<path style="opacity:0.1;enable-background:new    ;" d="M233.849,15.749L13.151,204.599h485.701L278.154,15.749
	C265.401,4.836,246.602,4.836,233.849,15.749z"/>
<polygon style="opacity:0.15;enable-background:new    ;" points="256.001,354.55 13.151,204.599 498.852,204.599 "/>
<path style="opacity:0.05;enable-background:new    ;" d="M52.89,504.501h406.223c21.947,0,39.739-17.792,39.739-39.739V204.599
	L27.716,495.507C34.57,501.126,43.335,504.501,52.89,504.501z"/>
<path style="fill:#E4E4E5;" d="M103.074,97.654v162.469l152.927,94.427l152.927-94.427V97.654c0-14.413-11.684-26.099-26.099-26.099
	H129.172C114.759,71.556,103.074,83.24,103.074,97.654z"/>
<path style="opacity:0.1;enable-background:new    ;" d="M246.503,327.14l-143.429-88.561v21.544l152.927,94.427l152.927-94.427
	v-21.544l-143.429,88.562C259.678,330.735,252.325,330.735,246.503,327.14z"/>
<path style="opacity:0.05;enable-background:new    ;" d="M256.001,354.55L27.716,495.507c6.854,5.619,15.62,8.993,25.174,8.993
	h406.223c9.555,0,18.32-3.375,25.175-8.993L256.001,354.55z"/>
<path d="M331.125,235.946H195.442c-4.141,0-7.499,3.358-7.499,7.499s3.358,7.499,7.499,7.499h135.683
	c4.141,0,7.499-3.358,7.499-7.499S335.266,235.946,331.125,235.946z M331.125,137.271c-4.141,0-7.499,3.358-7.499,7.499v12.47
	c0,4.141,3.358,7.499,7.499,7.499s7.499-3.358,7.499-7.499v-12.47C338.624,140.629,335.266,137.271,331.125,137.271z
	 M188.377,144.77c0-4.141-3.358-7.499-7.499-7.499s-7.499,3.358-7.499,7.499v12.47c0,4.141,3.358,7.499,7.499,7.499
	s7.499-3.358,7.499-7.499V144.77z M498.852,255.837c4.141,0,7.499-3.358,7.499-7.499v-43.739c0-0.059-0.007-0.115-0.009-0.173
	c-0.003-0.116-0.004-0.231-0.012-0.347c-0.004-0.05-0.009-0.101-0.013-0.151c-0.008-0.087-0.019-0.173-0.03-0.26
	c-0.013-0.103-0.025-0.206-0.042-0.309c-0.008-0.051-0.019-0.101-0.028-0.151c-0.018-0.098-0.04-0.194-0.062-0.29
	c-0.02-0.087-0.038-0.175-0.062-0.262c-0.014-0.053-0.031-0.106-0.046-0.158c-0.031-0.106-0.065-0.209-0.1-0.313
	c-0.024-0.071-0.045-0.142-0.072-0.212c-0.021-0.057-0.045-0.113-0.068-0.17c-0.044-0.11-0.093-0.218-0.143-0.326
	c-0.026-0.056-0.047-0.113-0.075-0.169c-0.029-0.059-0.061-0.118-0.092-0.176c-0.053-0.102-0.11-0.2-0.168-0.299
	c-0.027-0.046-0.05-0.093-0.078-0.139c-0.007-0.011-0.012-0.023-0.019-0.035c-0.001-0.001-0.002-0.002-0.002-0.003
	c-0.033-0.054-0.07-0.106-0.105-0.159c-0.061-0.093-0.126-0.183-0.191-0.273c-0.036-0.05-0.069-0.103-0.107-0.152
	c-0.012-0.016-0.022-0.033-0.034-0.048c-0.031-0.04-0.065-0.077-0.097-0.117c-0.071-0.089-0.147-0.173-0.222-0.259
	c-0.062-0.07-0.119-0.144-0.183-0.212c-0.024-0.026-0.052-0.049-0.077-0.074c-0.073-0.075-0.149-0.145-0.225-0.216
	c-0.085-0.08-0.167-0.163-0.255-0.238c-0.003-0.003-0.005-0.005-0.008-0.008l-87.299-74.701V97.654
	c0-18.526-15.072-33.598-33.598-33.598h-36.688L283.028,10.05c-15.661-13.4-38.395-13.401-54.055,0L165.86,64.056h-36.687
	c-18.526,0-33.598,15.072-33.598,33.598V124.2L8.276,198.901c-0.003,0.003-0.006,0.006-0.009,0.008
	c-0.087,0.075-0.168,0.157-0.252,0.235c-0.076,0.072-0.154,0.143-0.227,0.218c-0.025,0.025-0.053,0.049-0.077,0.075
	c-0.063,0.066-0.12,0.14-0.181,0.209c-0.076,0.086-0.152,0.171-0.224,0.261c-0.032,0.04-0.066,0.077-0.097,0.118
	c-0.009,0.012-0.017,0.025-0.026,0.038c-0.04,0.053-0.075,0.108-0.114,0.162c-0.065,0.09-0.13,0.18-0.191,0.273
	c-0.035,0.053-0.071,0.105-0.105,0.159c-0.001,0.001-0.002,0.002-0.002,0.003c-0.007,0.011-0.012,0.023-0.019,0.035
	c-0.028,0.046-0.051,0.093-0.078,0.139c-0.058,0.099-0.115,0.197-0.168,0.299c-0.031,0.059-0.063,0.117-0.092,0.176
	c-0.027,0.056-0.049,0.113-0.075,0.169c-0.049,0.108-0.098,0.215-0.143,0.326c-0.023,0.057-0.047,0.114-0.069,0.172
	c-0.026,0.07-0.047,0.141-0.071,0.211c-0.035,0.104-0.07,0.207-0.1,0.313c-0.015,0.053-0.032,0.105-0.046,0.159
	c-0.023,0.087-0.042,0.174-0.062,0.261c-0.022,0.096-0.043,0.192-0.062,0.289c-0.01,0.051-0.02,0.101-0.029,0.152
	c-0.017,0.103-0.029,0.206-0.042,0.309c-0.011,0.086-0.022,0.172-0.03,0.259c-0.005,0.051-0.01,0.102-0.013,0.153
	c-0.008,0.115-0.009,0.23-0.012,0.346c-0.001,0.058-0.009,0.115-0.009,0.173v260.162c0,14.479,6.554,27.45,16.844,36.122
	c0.305,0.297,0.632,0.561,0.977,0.797c8.078,6.449,18.302,10.319,29.417,10.319h406.223c11.115,0,21.338-3.868,29.415-10.317
	c0.346-0.238,0.675-0.503,0.982-0.801c10.289-8.672,16.841-21.642,16.841-36.12V291.791c0-4.141-3.358-7.499-7.499-7.499
	s-7.499,3.358-7.499,7.499v172.97c0,8.163-3.056,15.623-8.076,21.309L270.274,354.55l221.077-136.507v30.295
	C491.353,252.479,494.71,255.837,498.852,255.837z M238.726,21.446c10.012-8.565,24.543-8.564,34.554,0l49.797,42.611H188.928
	L238.726,21.446z M95.575,143.939v53.16H33.449L95.575,143.939z M95.575,212.098v34.582l-56.007-34.582H95.575z M469.588,495.245
	c-3.287,1.133-6.809,1.757-10.476,1.757H52.89c-3.667,0-7.188-0.624-10.476-1.757l64.599-39.888
	c3.524-2.176,4.616-6.796,2.441-10.321c-2.176-3.524-6.795-4.616-10.321-2.441L28.725,486.07c-5.02-5.686-8.076-13.145-8.076-21.309
	V218.043L241.727,354.55l-101.238,62.511c-3.524,2.176-4.616,6.796-2.441,10.321c1.418,2.296,3.873,3.561,6.388,3.561
	c1.344,0,2.705-0.361,3.932-1.12l107.633-66.459L469.588,495.245z M401.43,255.94l-145.429,89.796L110.573,255.94v-51.331
	c0-0.003,0.001-0.006,0.001-0.01s-0.001-0.006-0.001-0.01V97.654c0-10.256,8.344-18.6,18.6-18.6h253.658
	c10.256,0,18.6,8.344,18.6,18.6V255.94H401.43z M416.428,246.679v-34.582h56.007L416.428,246.679z M416.428,197.099v-53.161
	l62.126,53.161H416.428z M304.368,273.423H222.2c-4.141,0-7.499,3.358-7.499,7.499s3.358,7.499,7.499,7.499h82.168
	c4.141,0,7.499-3.358,7.499-7.499C311.867,276.78,308.51,273.423,304.368,273.423z M256.001,174.315
	c9.758,0,19.038-4.226,25.459-11.594c2.722-3.123,2.396-7.859-0.726-10.581c-3.123-2.722-7.86-2.397-10.581,0.726
	c-3.574,4.099-8.732,6.451-14.153,6.451s-10.58-2.352-14.153-6.451c-2.722-3.123-7.459-3.448-10.58-0.726
	c-3.123,2.721-3.448,7.458-0.726,10.581C236.964,170.09,246.244,174.315,256.001,174.315z"/>
<g>
</g>
<g>
</g>
<g>
</g>
<g>
</g>
<g>
</g>
<g>
</g>
<g>
</g>
<g>
</g>
<g>
</g>
<g>
</g>
<g>
</g>
<g>
</g>
<g>
</g>
<g>
</g>
<g>
</g>
</svg>
